<svg xmlns="http://www.w3.org/2000/svg" xmlns:xlink="http://www.w3.org/1999/xlink" width="1080" zoomAndPan="magnify" viewBox="0 0 810 809.999993" height="1080" preserveAspectRatio="xMidYMid meet"><defs><clipPath id="4b482545e6"><path d="M 0 4.050781 L 809 4.050781 L 809 802 L 0 802 Z M 0 4.050781 "></path></clipPath></defs><g id="1553f73921"><g clip-rule="nonzero" clip-path="url(#4b482545e6)"><path style=" stroke:none;fill-rule:evenodd;fill:#000000;fill-opacity:1;" d="M 585.042969 356.261719 C 546.972656 356.261719 527.875 402.371094 554.789062 429.285156 C 559.75 434.242188 559.75 442.285156 554.789062 447.242188 L 527.453125 474.574219 C 522.492188 479.53125 514.449219 479.53125 509.492188 474.574219 C 495.589844 460.675781 476.570312 459.050781 461.421875 465.96875 L 461.496094 397.515625 C 483.292969 380.519531 497.3125 354.015625 497.3125 324.242188 C 497.3125 272.949219 455.726562 231.371094 404.429688 231.371094 C 353.128906 231.371094 311.542969 272.949219 311.542969 324.242188 C 311.542969 354.246094 325.78125 380.925781 347.867188 397.902344 L 347.871094 466.144531 C 332.664062 458.996094 313.414062 460.527344 299.363281 474.574219 C 294.40625 479.53125 286.363281 479.53125 281.402344 474.574219 L 254.066406 447.242188 C 249.105469 442.285156 249.105469 434.242188 254.066406 429.285156 C 280.980469 402.375 261.882812 356.261719 223.8125 356.261719 C 216.796875 356.261719 211.113281 350.574219 211.113281 343.566406 L 211.113281 304.914062 C 211.113281 297.902344 216.796875 292.21875 223.8125 292.21875 C 261.882812 292.21875 280.980469 246.105469 254.066406 219.195312 C 249.105469 214.238281 249.105469 206.195312 254.066406 201.238281 L 281.402344 173.90625 C 286.363281 168.949219 294.40625 168.949219 299.363281 173.90625 C 326.277344 200.816406 372.398438 181.71875 372.398438 143.660156 C 372.398438 136.644531 378.085938 130.964844 385.097656 130.964844 L 423.757812 130.964844 C 430.769531 130.964844 436.457031 136.644531 436.457031 143.660156 C 436.457031 181.71875 482.574219 200.816406 509.492188 173.90625 C 514.449219 168.949219 522.492188 168.949219 527.449219 173.90625 L 554.789062 201.238281 C 559.746094 206.195312 559.746094 214.238281 554.789062 219.195312 C 527.871094 246.105469 546.972656 292.21875 585.039062 292.21875 C 592.054688 292.21875 597.738281 297.902344 597.738281 304.914062 L 597.738281 343.566406 C 597.738281 350.574219 592.054688 356.261719 585.042969 356.261719 Z M 769.722656 644.386719 L 675.207031 644.386719 C 668.878906 644.386719 663.746094 639.257812 663.746094 632.925781 C 663.746094 626.597656 668.878906 621.46875 675.207031 621.46875 L 769.722656 621.46875 L 740.816406 592.5625 C 736.339844 588.089844 736.339844 580.835938 740.816406 576.359375 C 745.289062 571.882812 752.546875 571.882812 757.023438 576.359375 L 805.5 624.824219 C 809.972656 629.300781 809.972656 636.554688 805.5 641.03125 L 757.023438 689.5 C 752.546875 693.972656 745.289062 693.972656 740.816406 689.5 C 736.339844 685.023438 736.339844 677.769531 740.816406 673.292969 Z M 61.820312 219.824219 L 89.265625 267.351562 C 85.953125 285.8125 84.222656 304.824219 84.222656 324.242188 C 84.222656 444.039062 150.972656 553.53125 257.324219 608.644531 C 262.9375 611.539062 269.832031 609.332031 272.722656 603.722656 C 275.617188 598.109375 273.414062 591.214844 267.800781 588.324219 C 169 537.125 107.148438 435.511719 107.148438 324.242188 C 107.148438 306.640625 108.679688 289.402344 111.617188 272.644531 L 158.339844 245.671875 C 163.804688 242.53125 165.6875 235.558594 162.546875 230.09375 C 159.40625 224.628906 152.433594 222.746094 146.96875 225.886719 L 118.601562 242.257812 C 155.011719 115.113281 271.644531 27.007812 404.429688 27.007812 C 529.632812 27.007812 641.164062 105.390625 683.828125 222.476562 L 656.816406 269.253906 C 653.652344 274.714844 655.515625 281.710938 660.980469 284.875 C 666.445312 288.039062 673.441406 286.175781 676.605469 280.710938 L 692.964844 252.386719 C 698.675781 275.398438 701.714844 299.464844 701.714844 324.238281 C 701.714844 389.726562 680.484375 452.730469 640.660156 504.75 C 636.828125 509.765625 637.792969 516.941406 642.808594 520.773438 C 647.828125 524.605469 655.007812 523.644531 658.835938 518.625 C 701.664062 462.679688 724.636719 394.679688 724.636719 324.238281 C 724.636719 297.941406 721.464844 272.386719 715.480469 247.933594 L 741.917969 263.191406 C 747.382812 266.355469 754.378906 264.492188 757.542969 259.03125 C 760.710938 253.566406 758.84375 246.570312 753.378906 243.40625 L 705.855469 215.972656 C 660.285156 89.164062 539.808594 4.089844 404.429688 4.089844 C 261.832031 4.089844 136.488281 98.429688 96.886719 234.820312 L 81.609375 208.363281 C 78.441406 202.902344 71.445312 201.035156 65.980469 204.199219 C 60.519531 207.363281 58.65625 214.359375 61.820312 219.824219 Z M 291.207031 621.46875 C 297.535156 621.46875 302.667969 626.597656 302.667969 632.925781 C 302.667969 639.257812 297.535156 644.386719 291.207031 644.386719 L 11.464844 644.386719 C 5.132812 644.386719 0 639.257812 0 632.925781 C 0 626.597656 5.132812 621.46875 11.464844 621.46875 Z M 438.394531 564.707031 L 438.585938 382.546875 C 438.601562 363.90625 423.347656 348.640625 404.707031 348.632812 C 386.066406 348.621094 370.796875 363.859375 370.785156 382.503906 L 370.8125 645.328125 C 341.34375 635.535156 325.902344 639.335938 315.214844 655.664062 C 303.175781 674.058594 307.753906 698.335938 325.554688 711.25 C 402.925781 767.382812 406.714844 795.734375 500.644531 801.109375 C 581.246094 805.726562 642.511719 740.214844 642.714844 665.507812 L 641.910156 563.59375 C 641.925781 544.953125 626.671875 529.691406 608.027344 529.683594 C 589.390625 529.667969 574.121094 544.910156 574.132812 563.574219 C 574.171875 544.953125 558.917969 529.695312 540.273438 529.683594 C 521.632812 529.671875 506.363281 544.910156 506.367188 563.574219 C 506.398438 544.953125 491.144531 529.695312 472.503906 529.683594 C 453.871094 529.667969 438.304688 546.066406 438.394531 564.707031 Z M 438.394531 564.707031 "></path><path style=" stroke:none;fill-rule:evenodd;fill:#000000;fill-opacity:1;" d="M 585.042969 356.261719 C 546.972656 356.261719 527.875 402.371094 554.789062 429.285156 C 559.75 434.242188 559.75 442.285156 554.789062 447.242188 L 527.453125 474.574219 C 522.492188 479.53125 514.449219 479.53125 509.492188 474.574219 C 495.589844 460.675781 476.570312 459.050781 461.421875 465.96875 L 461.496094 397.515625 C 483.292969 380.519531 497.3125 354.015625 497.3125 324.242188 C 497.3125 272.949219 455.726562 231.371094 404.429688 231.371094 C 353.128906 231.371094 311.542969 272.949219 311.542969 324.242188 C 311.542969 354.246094 325.78125 380.925781 347.867188 397.902344 L 347.871094 466.144531 C 332.664062 458.996094 313.414062 460.527344 299.363281 474.574219 C 294.40625 479.53125 286.363281 479.53125 281.402344 474.574219 L 254.066406 447.242188 C 249.105469 442.285156 249.105469 434.242188 254.066406 429.285156 C 280.980469 402.375 261.882812 356.261719 223.8125 356.261719 C 216.796875 356.261719 211.113281 350.574219 211.113281 343.566406 L 211.113281 304.914062 C 211.113281 297.902344 216.796875 292.21875 223.8125 292.21875 C 261.882812 292.21875 280.980469 246.105469 254.066406 219.195312 C 249.105469 214.238281 249.105469 206.195312 254.066406 201.238281 L 281.402344 173.90625 C 286.363281 168.949219 294.40625 168.949219 299.363281 173.90625 C 326.277344 200.816406 372.398438 181.71875 372.398438 143.660156 C 372.398438 136.644531 378.085938 130.964844 385.097656 130.964844 L 423.757812 130.964844 C 430.769531 130.964844 436.457031 136.644531 436.457031 143.660156 C 436.457031 181.71875 482.574219 200.816406 509.492188 173.90625 C 514.449219 168.949219 522.492188 168.949219 527.449219 173.90625 L 554.789062 201.238281 C 559.746094 206.195312 559.746094 214.238281 554.789062 219.195312 C 527.871094 246.105469 546.972656 292.21875 585.039062 292.21875 C 592.054688 292.21875 597.738281 297.902344 597.738281 304.914062 L 597.738281 343.566406 C 597.738281 350.574219 592.054688 356.261719 585.042969 356.261719 Z M 769.722656 644.386719 L 675.207031 644.386719 C 668.878906 644.386719 663.746094 639.257812 663.746094 632.925781 C 663.746094 626.597656 668.878906 621.46875 675.207031 621.46875 L 769.722656 621.46875 L 740.816406 592.5625 C 736.339844 588.089844 736.339844 580.835938 740.816406 576.359375 C 745.289062 571.882812 752.546875 571.882812 757.023438 576.359375 L 805.5 624.824219 C 809.972656 629.300781 809.972656 636.554688 805.5 641.03125 L 757.023438 689.5 C 752.546875 693.972656 745.289062 693.972656 740.816406 689.5 C 736.339844 685.023438 736.339844 677.769531 740.816406 673.292969 Z M 61.820312 219.824219 L 89.265625 267.351562 C 85.953125 285.8125 84.222656 304.824219 84.222656 324.242188 C 84.222656 444.039062 150.972656 553.53125 257.324219 608.644531 C 262.9375 611.539062 269.832031 609.332031 272.722656 603.722656 C 275.617188 598.109375 273.414062 591.214844 267.800781 588.324219 C 169 537.125 107.148438 435.511719 107.148438 324.242188 C 107.148438 306.640625 108.679688 289.402344 111.617188 272.644531 L 158.339844 245.671875 C 163.804688 242.53125 165.6875 235.558594 162.546875 230.09375 C 159.40625 224.628906 152.433594 222.746094 146.96875 225.886719 L 118.601562 242.257812 C 155.011719 115.113281 271.644531 27.007812 404.429688 27.007812 C 529.632812 27.007812 641.164062 105.390625 683.828125 222.476562 L 656.816406 269.253906 C 653.652344 274.714844 655.515625 281.710938 660.980469 284.875 C 666.445312 288.039062 673.441406 286.175781 676.605469 280.710938 L 692.964844 252.386719 C 698.675781 275.398438 701.714844 299.464844 701.714844 324.238281 C 701.714844 389.726562 680.484375 452.730469 640.660156 504.75 C 636.828125 509.765625 637.792969 516.941406 642.808594 520.773438 C 647.828125 524.605469 655.007812 523.644531 658.835938 518.625 C 701.664062 462.679688 724.636719 394.679688 724.636719 324.238281 C 724.636719 297.941406 721.464844 272.386719 715.480469 247.933594 L 741.917969 263.191406 C 747.382812 266.355469 754.378906 264.492188 757.542969 259.03125 C 760.710938 253.566406 758.84375 246.570312 753.378906 243.40625 L 705.855469 215.972656 C 660.285156 89.164062 539.808594 4.089844 404.429688 4.089844 C 261.832031 4.089844 136.488281 98.429688 96.886719 234.820312 L 81.609375 208.363281 C 78.441406 202.902344 71.445312 201.035156 65.980469 204.199219 C 60.519531 207.363281 58.65625 214.359375 61.820312 219.824219 Z M 291.207031 621.46875 C 297.535156 621.46875 302.667969 626.597656 302.667969 632.925781 C 302.667969 639.257812 297.535156 644.386719 291.207031 644.386719 L 11.464844 644.386719 C 5.132812 644.386719 0 639.257812 0 632.925781 C 0 626.597656 5.132812 621.46875 11.464844 621.46875 Z M 438.394531 564.707031 L 438.585938 382.546875 C 438.601562 363.90625 423.347656 348.640625 404.707031 348.632812 C 386.066406 348.621094 370.796875 363.859375 370.785156 382.503906 L 370.8125 645.328125 C 341.34375 635.535156 325.902344 639.335938 315.214844 655.664062 C 303.175781 674.058594 307.753906 698.335938 325.554688 711.25 C 402.925781 767.382812 406.714844 795.734375 500.644531 801.109375 C 581.246094 805.726562 642.511719 740.214844 642.714844 665.507812 L 641.910156 563.59375 C 641.925781 544.953125 626.671875 529.691406 608.027344 529.683594 C 589.390625 529.667969 574.121094 544.910156 574.132812 563.574219 C 574.171875 544.953125 558.917969 529.695312 540.273438 529.683594 C 521.632812 529.671875 506.363281 544.910156 506.367188 563.574219 C 506.398438 544.953125 491.144531 529.695312 472.503906 529.683594 C 453.871094 529.667969 438.304688 546.066406 438.394531 564.707031 Z M 438.394531 564.707031 "></path></g></g></svg>