<svg xmlns="http://www.w3.org/2000/svg" xmlns:xlink="http://www.w3.org/1999/xlink" width="1080" zoomAndPan="magnify" viewBox="0 0 810 809.999993" height="1080" preserveAspectRatio="xMidYMid meet"><defs><clipPath id="c49c06d976"><path d="M 6.582031 0 L 803.082031 0 L 803.082031 810 L 6.582031 810 Z M 6.582031 0 "></path></clipPath></defs><g id="fb25d6d812"><g clip-rule="nonzero" clip-path="url(#c49c06d976)"><path style=" stroke:none;fill-rule:nonzero;fill:#000000;fill-opacity:1;" d="M 753.511719 115.886719 L 674.601562 115.886719 L 674.601562 12.996094 C 674.601562 5.910156 668.871094 0.175781 661.789062 0.175781 L 147.875 0.175781 C 140.792969 0.175781 135.058594 5.910156 135.058594 12.996094 L 135.058594 115.886719 L 56.152344 115.886719 C 28.835938 115.886719 6.582031 138.152344 6.582031 165.480469 L 6.582031 606.0625 C 6.582031 633.386719 28.835938 655.652344 56.152344 655.652344 L 276.015625 655.652344 C 271.96875 765.460938 218.183594 782.328125 210.765625 784.183594 L 173.503906 784.183594 C 166.421875 784.183594 160.6875 789.917969 160.6875 797.003906 C 160.6875 804.089844 166.421875 809.824219 173.503906 809.824219 L 635.992188 809.824219 C 643.074219 809.824219 648.804688 804.089844 648.804688 797.003906 C 648.804688 789.917969 643.074219 784.183594 635.992188 784.183594 L 598.898438 784.183594 C 591.480469 782.5 537.695312 765.460938 533.648438 655.652344 L 753.511719 655.652344 C 780.824219 655.652344 803.082031 633.386719 803.082031 606.0625 L 803.082031 165.480469 C 803.082031 138.152344 780.824219 115.886719 753.511719 115.886719 Z M 160.6875 25.816406 L 648.972656 25.816406 L 648.972656 539.941406 L 160.6875 539.941406 Z M 32.210938 165.480469 C 32.210938 152.324219 42.832031 141.527344 56.152344 141.527344 L 135.058594 141.527344 L 135.058594 539.941406 L 32.210938 539.941406 Z M 551.855469 784.183594 L 257.804688 784.183594 C 278.542969 763.101562 299.453125 724.640625 301.8125 655.652344 L 507.851562 655.652344 C 510.210938 724.640625 530.949219 762.933594 551.855469 784.183594 Z M 777.285156 606.0625 C 777.285156 619.21875 766.660156 630.015625 753.34375 630.015625 L 56.152344 630.015625 C 43 630.015625 32.210938 619.386719 32.210938 606.0625 L 32.210938 565.75 L 777.453125 565.75 L 777.453125 606.0625 Z M 777.285156 539.941406 L 674.433594 539.941406 L 674.433594 141.527344 L 753.511719 141.527344 C 766.660156 141.527344 777.453125 152.152344 777.453125 165.480469 L 777.453125 539.941406 Z M 520.496094 103.070312 C 520.496094 110.152344 514.761719 115.886719 507.679688 115.886719 L 224.925781 115.886719 C 217.847656 115.886719 212.113281 110.152344 212.113281 103.070312 C 212.113281 95.984375 217.847656 90.25 224.925781 90.25 L 507.511719 90.25 C 514.761719 90.082031 520.496094 95.816406 520.496094 103.070312 Z M 520.496094 180.152344 C 520.496094 187.238281 514.761719 192.972656 507.679688 192.972656 L 358.96875 192.972656 C 351.886719 192.972656 346.15625 187.238281 346.15625 180.152344 C 346.15625 173.070312 351.886719 167.335938 358.96875 167.335938 L 507.679688 167.335938 C 514.761719 167.167969 520.496094 173.070312 520.496094 180.152344 Z M 212.113281 180.152344 C 212.113281 173.070312 217.847656 167.335938 224.925781 167.335938 L 308.894531 167.335938 C 315.976562 167.335938 321.707031 173.070312 321.707031 180.152344 C 321.707031 187.238281 315.976562 192.972656 308.894531 192.972656 L 224.925781 192.972656 C 217.847656 192.972656 212.113281 187.238281 212.113281 180.152344 Z M 520.496094 257.238281 C 520.496094 264.324219 514.761719 270.058594 507.679688 270.058594 L 451.367188 270.058594 C 444.285156 270.058594 438.550781 264.324219 438.550781 257.238281 C 438.550781 250.15625 444.285156 244.417969 451.367188 244.417969 L 507.679688 244.417969 C 514.761719 244.417969 520.496094 250.15625 520.496094 257.238281 Z M 212.113281 257.238281 C 212.113281 250.15625 217.847656 244.417969 224.925781 244.417969 L 404.832031 244.417969 C 411.914062 244.417969 417.644531 250.15625 417.644531 257.238281 C 417.644531 264.324219 411.914062 270.058594 404.832031 270.058594 L 224.925781 270.058594 C 217.847656 270.058594 212.113281 264.324219 212.113281 257.238281 Z M 212.113281 334.324219 C 212.113281 327.238281 217.847656 321.503906 224.925781 321.503906 L 465.699219 321.503906 C 472.78125 321.503906 478.511719 327.238281 478.511719 334.324219 C 478.511719 341.410156 472.78125 347.144531 465.699219 347.144531 L 224.925781 347.144531 C 217.847656 347.144531 212.113281 341.410156 212.113281 334.324219 Z M 520.496094 411.410156 C 520.496094 418.492188 514.761719 424.230469 507.679688 424.230469 L 398.761719 424.230469 C 391.679688 424.230469 385.945312 418.496094 385.945312 411.410156 C 385.945312 404.324219 391.679688 398.589844 398.761719 398.589844 L 507.679688 398.589844 C 514.761719 398.589844 520.496094 404.324219 520.496094 411.410156 Z M 212.113281 411.410156 C 212.113281 404.324219 217.847656 398.589844 224.925781 398.589844 L 328.453125 398.589844 C 335.535156 398.589844 341.265625 404.324219 341.265625 411.410156 C 341.265625 418.496094 335.535156 424.230469 328.453125 424.230469 L 224.925781 424.230469 C 217.847656 424.230469 212.113281 418.492188 212.113281 411.410156 Z M 520.496094 488.496094 C 520.496094 495.578125 514.761719 501.3125 507.679688 501.3125 L 224.925781 501.3125 C 217.847656 501.3125 212.113281 495.578125 212.113281 488.496094 C 212.113281 481.410156 217.847656 475.675781 224.925781 475.675781 L 507.511719 475.675781 C 514.761719 475.675781 520.496094 481.410156 520.496094 488.496094 Z M 553.035156 264.15625 L 563.152344 254.035156 L 553.035156 243.914062 C 547.980469 238.855469 547.980469 230.757812 553.035156 225.695312 C 558.09375 220.636719 566.1875 220.636719 571.246094 225.695312 L 581.363281 235.816406 L 591.480469 225.695312 C 596.539062 220.636719 604.628906 220.636719 609.6875 225.695312 C 614.746094 230.757812 614.746094 238.855469 609.6875 243.914062 L 599.574219 254.035156 L 609.6875 264.15625 C 614.746094 269.214844 614.746094 277.3125 609.6875 282.371094 C 607.160156 284.902344 603.957031 286.082031 600.585938 286.082031 C 597.210938 286.082031 594.007812 284.902344 591.480469 282.371094 L 581.363281 272.25 L 571.246094 282.371094 C 568.71875 284.902344 565.515625 286.082031 562.140625 286.082031 C 558.769531 286.082031 555.566406 284.902344 553.035156 282.371094 C 548.148438 277.3125 548.148438 269.214844 553.035156 264.15625 Z M 553.035156 418.324219 L 563.152344 408.203125 L 553.035156 398.085938 C 547.980469 393.023438 547.980469 384.925781 553.035156 379.867188 C 558.09375 374.808594 566.1875 374.808594 571.246094 379.867188 L 581.363281 389.988281 L 591.480469 379.867188 C 596.539062 374.808594 604.628906 374.808594 609.6875 379.867188 C 614.746094 384.925781 614.746094 393.023438 609.6875 398.085938 L 599.574219 408.203125 L 609.6875 418.324219 C 614.746094 423.386719 614.746094 431.480469 609.6875 436.542969 C 607.160156 439.074219 603.957031 440.253906 600.585938 440.253906 C 597.210938 440.253906 594.007812 439.074219 591.480469 436.542969 L 581.363281 426.421875 L 571.246094 436.542969 C 568.71875 439.074219 565.515625 440.253906 562.140625 440.253906 C 558.769531 440.253906 555.566406 439.074219 553.035156 436.542969 C 548.148438 431.480469 548.148438 423.386719 553.035156 418.324219 Z M 619.46875 145.238281 C 624.527344 150.296875 624.527344 158.394531 619.46875 163.457031 L 580.855469 202.082031 C 578.328125 204.613281 575.125 205.792969 571.753906 205.792969 C 568.378906 205.792969 565.175781 204.613281 562.648438 202.082031 L 549.832031 189.261719 C 544.773438 184.203125 544.773438 176.105469 549.832031 171.046875 C 554.890625 165.984375 562.984375 165.984375 568.042969 171.046875 L 571.753906 174.757812 L 601.257812 145.238281 C 606.316406 140.347656 614.410156 140.347656 619.46875 145.238281 Z M 619.46875 299.578125 C 624.527344 304.636719 624.527344 312.734375 619.46875 317.792969 L 580.855469 356.421875 C 578.328125 358.953125 575.125 360.132812 571.753906 360.132812 C 568.378906 360.132812 565.175781 358.953125 562.648438 356.421875 L 549.832031 343.601562 C 544.773438 338.542969 544.773438 330.445312 549.832031 325.382812 C 554.890625 320.324219 562.984375 320.324219 568.042969 325.382812 L 571.753906 329.09375 L 601.257812 299.578125 C 606.316406 294.515625 614.410156 294.515625 619.46875 299.578125 Z M 619.46875 453.746094 C 624.527344 458.808594 624.527344 466.902344 619.46875 471.964844 L 580.855469 510.589844 C 578.328125 513.121094 575.125 514.300781 571.753906 514.300781 C 568.378906 514.300781 565.175781 513.121094 562.648438 510.589844 L 549.832031 497.773438 C 544.773438 492.710938 544.773438 484.617188 549.832031 479.554688 C 554.890625 474.496094 562.984375 474.496094 568.042969 479.554688 L 571.753906 483.265625 L 601.257812 453.746094 C 606.316406 448.6875 614.410156 448.6875 619.46875 453.746094 Z M 619.46875 68.152344 C 624.527344 73.214844 624.527344 81.308594 619.46875 86.371094 L 580.855469 124.996094 C 578.328125 127.527344 575.125 128.707031 571.753906 128.707031 C 568.378906 128.707031 565.175781 127.527344 562.648438 124.996094 L 549.832031 112.175781 C 544.773438 107.117188 544.773438 99.019531 549.832031 93.960938 C 554.890625 88.898438 562.984375 88.898438 568.042969 93.960938 L 571.753906 97.671875 L 601.257812 68.152344 C 606.316406 63.261719 614.410156 63.261719 619.46875 68.152344 Z M 619.46875 68.152344 "></path><path style=" stroke:none;fill-rule:nonzero;fill:#000000;fill-opacity:1;" d="M 753.511719 115.886719 L 674.601562 115.886719 L 674.601562 12.996094 C 674.601562 5.910156 668.871094 0.175781 661.789062 0.175781 L 147.875 0.175781 C 140.792969 0.175781 135.058594 5.910156 135.058594 12.996094 L 135.058594 115.886719 L 56.152344 115.886719 C 28.835938 115.886719 6.582031 138.152344 6.582031 165.480469 L 6.582031 606.0625 C 6.582031 633.386719 28.835938 655.652344 56.152344 655.652344 L 276.015625 655.652344 C 271.96875 765.460938 218.183594 782.328125 210.765625 784.183594 L 173.503906 784.183594 C 166.421875 784.183594 160.6875 789.917969 160.6875 797.003906 C 160.6875 804.089844 166.421875 809.824219 173.503906 809.824219 L 635.992188 809.824219 C 643.074219 809.824219 648.804688 804.089844 648.804688 797.003906 C 648.804688 789.917969 643.074219 784.183594 635.992188 784.183594 L 598.898438 784.183594 C 591.480469 782.5 537.695312 765.460938 533.648438 655.652344 L 753.511719 655.652344 C 780.824219 655.652344 803.082031 633.386719 803.082031 606.0625 L 803.082031 165.480469 C 803.082031 138.152344 780.824219 115.886719 753.511719 115.886719 Z M 160.6875 25.816406 L 648.972656 25.816406 L 648.972656 539.941406 L 160.6875 539.941406 Z M 32.210938 165.480469 C 32.210938 152.324219 42.832031 141.527344 56.152344 141.527344 L 135.058594 141.527344 L 135.058594 539.941406 L 32.210938 539.941406 Z M 551.855469 784.183594 L 257.804688 784.183594 C 278.542969 763.101562 299.453125 724.640625 301.8125 655.652344 L 507.851562 655.652344 C 510.210938 724.640625 530.949219 762.933594 551.855469 784.183594 Z M 777.285156 606.0625 C 777.285156 619.21875 766.660156 630.015625 753.34375 630.015625 L 56.152344 630.015625 C 43 630.015625 32.210938 619.386719 32.210938 606.0625 L 32.210938 565.75 L 777.453125 565.75 L 777.453125 606.0625 Z M 777.285156 539.941406 L 674.433594 539.941406 L 674.433594 141.527344 L 753.511719 141.527344 C 766.660156 141.527344 777.453125 152.152344 777.453125 165.480469 L 777.453125 539.941406 Z M 520.496094 103.070312 C 520.496094 110.152344 514.761719 115.886719 507.679688 115.886719 L 224.925781 115.886719 C 217.847656 115.886719 212.113281 110.152344 212.113281 103.070312 C 212.113281 95.984375 217.847656 90.25 224.925781 90.25 L 507.511719 90.25 C 514.761719 90.082031 520.496094 95.816406 520.496094 103.070312 Z M 520.496094 180.152344 C 520.496094 187.238281 514.761719 192.972656 507.679688 192.972656 L 358.96875 192.972656 C 351.886719 192.972656 346.15625 187.238281 346.15625 180.152344 C 346.15625 173.070312 351.886719 167.335938 358.96875 167.335938 L 507.679688 167.335938 C 514.761719 167.167969 520.496094 173.070312 520.496094 180.152344 Z M 212.113281 180.152344 C 212.113281 173.070312 217.847656 167.335938 224.925781 167.335938 L 308.894531 167.335938 C 315.976562 167.335938 321.707031 173.070312 321.707031 180.152344 C 321.707031 187.238281 315.976562 192.972656 308.894531 192.972656 L 224.925781 192.972656 C 217.847656 192.972656 212.113281 187.238281 212.113281 180.152344 Z M 520.496094 257.238281 C 520.496094 264.324219 514.761719 270.058594 507.679688 270.058594 L 451.367188 270.058594 C 444.285156 270.058594 438.550781 264.324219 438.550781 257.238281 C 438.550781 250.15625 444.285156 244.417969 451.367188 244.417969 L 507.679688 244.417969 C 514.761719 244.417969 520.496094 250.15625 520.496094 257.238281 Z M 212.113281 257.238281 C 212.113281 250.15625 217.847656 244.417969 224.925781 244.417969 L 404.832031 244.417969 C 411.914062 244.417969 417.644531 250.15625 417.644531 257.238281 C 417.644531 264.324219 411.914062 270.058594 404.832031 270.058594 L 224.925781 270.058594 C 217.847656 270.058594 212.113281 264.324219 212.113281 257.238281 Z M 212.113281 334.324219 C 212.113281 327.238281 217.847656 321.503906 224.925781 321.503906 L 465.699219 321.503906 C 472.78125 321.503906 478.511719 327.238281 478.511719 334.324219 C 478.511719 341.410156 472.78125 347.144531 465.699219 347.144531 L 224.925781 347.144531 C 217.847656 347.144531 212.113281 341.410156 212.113281 334.324219 Z M 520.496094 411.410156 C 520.496094 418.492188 514.761719 424.230469 507.679688 424.230469 L 398.761719 424.230469 C 391.679688 424.230469 385.945312 418.496094 385.945312 411.410156 C 385.945312 404.324219 391.679688 398.589844 398.761719 398.589844 L 507.679688 398.589844 C 514.761719 398.589844 520.496094 404.324219 520.496094 411.410156 Z M 212.113281 411.410156 C 212.113281 404.324219 217.847656 398.589844 224.925781 398.589844 L 328.453125 398.589844 C 335.535156 398.589844 341.265625 404.324219 341.265625 411.410156 C 341.265625 418.496094 335.535156 424.230469 328.453125 424.230469 L 224.925781 424.230469 C 217.847656 424.230469 212.113281 418.492188 212.113281 411.410156 Z M 520.496094 488.496094 C 520.496094 495.578125 514.761719 501.3125 507.679688 501.3125 L 224.925781 501.3125 C 217.847656 501.3125 212.113281 495.578125 212.113281 488.496094 C 212.113281 481.410156 217.847656 475.675781 224.925781 475.675781 L 507.511719 475.675781 C 514.761719 475.675781 520.496094 481.410156 520.496094 488.496094 Z M 553.035156 264.15625 L 563.152344 254.035156 L 553.035156 243.914062 C 547.980469 238.855469 547.980469 230.757812 553.035156 225.695312 C 558.09375 220.636719 566.1875 220.636719 571.246094 225.695312 L 581.363281 235.816406 L 591.480469 225.695312 C 596.539062 220.636719 604.628906 220.636719 609.6875 225.695312 C 614.746094 230.757812 614.746094 238.855469 609.6875 243.914062 L 599.574219 254.035156 L 609.6875 264.15625 C 614.746094 269.214844 614.746094 277.3125 609.6875 282.371094 C 607.160156 284.902344 603.957031 286.082031 600.585938 286.082031 C 597.210938 286.082031 594.007812 284.902344 591.480469 282.371094 L 581.363281 272.25 L 571.246094 282.371094 C 568.71875 284.902344 565.515625 286.082031 562.140625 286.082031 C 558.769531 286.082031 555.566406 284.902344 553.035156 282.371094 C 548.148438 277.3125 548.148438 269.214844 553.035156 264.15625 Z M 553.035156 418.324219 L 563.152344 408.203125 L 553.035156 398.085938 C 547.980469 393.023438 547.980469 384.925781 553.035156 379.867188 C 558.09375 374.808594 566.1875 374.808594 571.246094 379.867188 L 581.363281 389.988281 L 591.480469 379.867188 C 596.539062 374.808594 604.628906 374.808594 609.6875 379.867188 C 614.746094 384.925781 614.746094 393.023438 609.6875 398.085938 L 599.574219 408.203125 L 609.6875 418.324219 C 614.746094 423.386719 614.746094 431.480469 609.6875 436.542969 C 607.160156 439.074219 603.957031 440.253906 600.585938 440.253906 C 597.210938 440.253906 594.007812 439.074219 591.480469 436.542969 L 581.363281 426.421875 L 571.246094 436.542969 C 568.71875 439.074219 565.515625 440.253906 562.140625 440.253906 C 558.769531 440.253906 555.566406 439.074219 553.035156 436.542969 C 548.148438 431.480469 548.148438 423.386719 553.035156 418.324219 Z M 619.46875 145.238281 C 624.527344 150.296875 624.527344 158.394531 619.46875 163.457031 L 580.855469 202.082031 C 578.328125 204.613281 575.125 205.792969 571.753906 205.792969 C 568.378906 205.792969 565.175781 204.613281 562.648438 202.082031 L 549.832031 189.261719 C 544.773438 184.203125 544.773438 176.105469 549.832031 171.046875 C 554.890625 165.984375 562.984375 165.984375 568.042969 171.046875 L 571.753906 174.757812 L 601.257812 145.238281 C 606.316406 140.347656 614.410156 140.347656 619.46875 145.238281 Z M 619.46875 299.578125 C 624.527344 304.636719 624.527344 312.734375 619.46875 317.792969 L 580.855469 356.421875 C 578.328125 358.953125 575.125 360.132812 571.753906 360.132812 C 568.378906 360.132812 565.175781 358.953125 562.648438 356.421875 L 549.832031 343.601562 C 544.773438 338.542969 544.773438 330.445312 549.832031 325.382812 C 554.890625 320.324219 562.984375 320.324219 568.042969 325.382812 L 571.753906 329.09375 L 601.257812 299.578125 C 606.316406 294.515625 614.410156 294.515625 619.46875 299.578125 Z M 619.46875 453.746094 C 624.527344 458.808594 624.527344 466.902344 619.46875 471.964844 L 580.855469 510.589844 C 578.328125 513.121094 575.125 514.300781 571.753906 514.300781 C 568.378906 514.300781 565.175781 513.121094 562.648438 510.589844 L 549.832031 497.773438 C 544.773438 492.710938 544.773438 484.617188 549.832031 479.554688 C 554.890625 474.496094 562.984375 474.496094 568.042969 479.554688 L 571.753906 483.265625 L 601.257812 453.746094 C 606.316406 448.6875 614.410156 448.6875 619.46875 453.746094 Z M 619.46875 68.152344 C 624.527344 73.214844 624.527344 81.308594 619.46875 86.371094 L 580.855469 124.996094 C 578.328125 127.527344 575.125 128.707031 571.753906 128.707031 C 568.378906 128.707031 565.175781 127.527344 562.648438 124.996094 L 549.832031 112.175781 C 544.773438 107.117188 544.773438 99.019531 549.832031 93.960938 C 554.890625 88.898438 562.984375 88.898438 568.042969 93.960938 L 571.753906 97.671875 L 601.257812 68.152344 C 606.316406 63.261719 614.410156 63.261719 619.46875 68.152344 Z M 619.46875 68.152344 "></path></g></g></svg>